<svg width="130" height="19" viewBox="0 0 130 19" fill="none" xmlns="http://www.w3.org/2000/svg">
<g clip-path="url(#clip0_136_2)">
<mask id="mask0_136_2" style="mask-type:luminance" maskUnits="userSpaceOnUse" x="0" y="0" width="130" height="19">
<path d="M130 0H0V18.087H130V0Z" fill="white"/>
</mask>
<g mask="url(#mask0_136_2)">
<path d="M11.728 14.4927H5.57022L4.5831 17.3635H0.376099L6.34582 1.11128H10.9994L16.9691 17.3635H12.7151L11.728 14.4927ZM10.6938 11.4367L8.64909 5.48688L6.62785 11.4367H10.6938Z" fill="#266DD3"/>
<path d="M22.7343 1.11128V10.8348C22.7343 11.8072 22.9772 12.5557 23.4629 13.0805C23.9487 13.6053 24.6616 13.8676 25.6017 13.8676C26.5418 13.8676 27.2626 13.6053 27.764 13.0805C28.2653 12.5557 28.5161 11.8072 28.5161 10.8348V1.11128H32.5351V10.8117C32.5351 12.2625 32.2217 13.4895 31.595 14.4927C30.9682 15.496 30.1221 16.2522 29.0566 16.7615C28.0068 17.2709 26.8317 17.5255 25.5312 17.5255C24.2307 17.5255 23.0634 17.2786 22.0292 16.7847C21.0108 16.2754 20.2039 15.5191 19.6085 14.5159C19.0131 13.4972 18.7153 12.2625 18.7153 10.8117V1.11128H22.7343Z" fill="#266DD3"/>
<path d="M47.2261 1.11128V4.28301H42.8546V17.3635H38.8356V4.28301H34.4641V1.11128H47.2261Z" fill="#266DD3"/>
<path d="M68.4839 9.21422C68.4839 7.60911 68.8364 6.18142 69.5415 4.93125C70.2466 3.66564 71.2259 2.68557 72.4794 1.99103C73.7489 1.28106 75.1826 0.926071 76.7808 0.926071C78.7388 0.926071 80.4156 1.4354 81.8104 2.45406C83.2044 3.47271 84.1371 4.86179 84.6072 6.62129H80.1887C79.8596 5.94218 79.3888 5.42514 78.7778 5.07015C78.1828 4.71517 77.5013 4.53767 76.7337 4.53767C75.4954 4.53767 74.4929 4.96212 73.7246 5.811C72.9573 6.65987 72.5734 7.79432 72.5734 9.21422C72.5734 10.6342 72.9573 11.7686 73.7246 12.6175C74.4929 13.4664 75.4954 13.8908 76.7337 13.8908C77.5013 13.8908 78.1828 13.7133 78.7778 13.3583C79.3888 13.0034 79.8596 12.4863 80.1887 11.8072H84.6072C84.1371 13.5667 83.2044 14.9557 81.8104 15.9744C80.4156 16.9776 78.7388 17.4792 76.7808 17.4792C75.1826 17.4792 73.7489 17.132 72.4794 16.4374C71.2259 15.7275 70.2466 14.7474 69.5415 13.4972C68.8364 12.247 68.4839 10.8194 68.4839 9.21422Z" fill="black"/>
<path d="M97.3384 14.4927H91.1807L90.1936 17.3635H85.9866L91.9563 1.11128H96.6106L102.58 17.3635H98.3263L97.3384 14.4927ZM96.305 11.4367L94.2596 5.48688L92.2391 11.4367H96.305Z" fill="black"/>
<path d="M112.811 17.3635L109.379 11.2284H108.416V17.3635H104.397V1.11128H111.142C112.443 1.11128 113.547 1.33508 114.456 1.78267C115.381 2.23026 116.07 2.84763 116.524 3.63477C116.979 4.40649 117.206 5.2708 117.206 6.22772C117.206 7.30814 116.893 8.27276 116.266 9.12161C115.654 9.97054 114.746 10.5725 113.539 10.9274L117.347 17.3635H112.811ZM108.416 8.42707H110.907C111.644 8.42707 112.192 8.2496 112.552 7.89459C112.928 7.53965 113.116 7.03802 113.116 6.38978C113.116 5.77241 112.928 5.28624 112.552 4.93125C112.192 4.57626 111.644 4.39877 110.907 4.39877H108.416V8.42707Z" fill="black"/>
<path d="M123.747 4.28301V7.57048H129.13V10.6264H123.747V14.1917H129.835V17.3635H119.729V1.11128H129.835V4.28301H123.747Z" fill="black"/>
<path d="M64.5492 7.68319C64.3674 6.79316 64.0092 5.94722 63.495 5.19376L64.3939 3.91705L62.8596 2.40562L61.5599 3.29114C60.7955 2.78366 59.9365 2.43069 59.0327 2.2527L58.7475 0.72348H56.5812L56.296 2.2527C55.3921 2.43069 54.5332 2.78366 53.7688 3.29114L52.4583 2.39139L51.6821 3.14533L50.9167 3.90283L51.812 5.17954C51.3004 5.93392 50.9435 6.77961 50.7614 7.66894L49.209 7.96058V10.0944L50.7614 10.3718C50.9435 11.2611 51.3004 12.1068 51.812 12.8612L50.9167 14.1556L51.6821 14.9132L52.4583 15.6671L53.758 14.7851C54.5233 15.2901 55.382 15.6417 56.2852 15.82L56.5704 17.3492H58.7366L59.0218 15.82C59.925 15.6417 60.7838 15.2901 61.5491 14.7851L62.8488 15.6671L64.3831 14.1556L63.495 12.879C64.0092 12.1255 64.3674 11.2795 64.5492 10.3895L66.1016 10.1121V7.97837L64.5492 7.68319ZM57.6535 13.1528C56.8252 13.1521 56.0157 12.9095 55.3274 12.4555C54.6391 12.0017 54.1029 11.3569 53.7866 10.6029C53.4703 9.84878 53.388 9.01924 53.5503 8.21915C53.7126 7.41905 54.1121 6.68435 54.6984 6.10792C55.2845 5.53148 56.0311 5.13921 56.8437 4.98073C57.6561 4.82224 58.4981 4.90465 59.2631 5.21754C60.0281 5.53042 60.6817 6.05973 61.1413 6.73853C61.6008 7.41732 61.8458 8.2151 61.8451 9.03103C61.8451 9.57292 61.7366 10.1095 61.5259 10.61C61.3151 11.1105 61.0063 11.5652 60.617 11.9481C60.2276 12.3309 59.7655 12.6344 59.257 12.8411C58.7485 13.0478 58.2036 13.1537 57.6535 13.1528Z" stroke="#266DD3" stroke-width="1.5" stroke-linecap="round" stroke-linejoin="round"/>
</g>
</g>
<defs>
<clipPath id="clip0_136_2">
<rect width="130" height="19" fill="white"/>
</clipPath>
</defs>
</svg>
