<svg width="32" height="32" viewBox="0 0 32 32" fill="none" xmlns="http://www.w3.org/2000/svg">
<path d="M28.5431 26.3369L22.6625 20.4562C24.0783 18.5715 24.8426 16.2773 24.84 13.92C24.84 7.89875 19.9412 3 13.92 3C7.89875 3 3 7.89875 3 13.92C3 19.9412 7.89875 24.84 13.92 24.84C16.2773 24.8426 18.5715 24.0783 20.4562 22.6625L26.3369 28.5431C26.6346 28.8092 27.0228 28.9513 27.4219 28.9401C27.821 28.9289 28.2007 28.7654 28.4831 28.4831C28.7654 28.2007 28.9289 27.821 28.9401 27.4219C28.9513 27.0228 28.8092 26.6346 28.5431 26.3369ZM6.12 13.92C6.12 12.3773 6.57746 10.8693 7.43454 9.58655C8.29161 8.30385 9.50981 7.3041 10.9351 6.71374C12.3603 6.12338 13.9287 5.96891 15.4417 6.26988C16.9548 6.57084 18.3446 7.31372 19.4354 8.40457C20.5263 9.49542 21.2692 10.8852 21.5701 12.3983C21.8711 13.9113 21.7166 15.4797 21.1263 16.9049C20.5359 18.3302 19.5362 19.5484 18.2534 20.4055C16.9707 21.2625 15.4627 21.72 13.92 21.72C11.8521 21.7175 9.86955 20.8949 8.40731 19.4327C6.94506 17.9704 6.12248 15.9879 6.12 13.92Z" fill="white"/>
<path d="M13.8757 10C13.6727 10 13.4871 10.1725 13.5007 10.375L13.6882 15.4375C13.6882 15.4872 13.708 15.5349 13.7431 15.5701C13.7783 15.6052 13.826 15.625 13.8757 15.625C13.9254 15.625 13.9731 15.6052 14.0083 15.5701C14.0434 15.5349 14.0632 15.4872 14.0632 15.4375L14.2507 10.375C14.2643 10.1725 14.0787 10 13.8757 10Z" stroke="white" stroke-linecap="round" stroke-linejoin="round"/>
<path d="M13.875 17.75C14.0821 17.75 14.25 17.5821 14.25 17.375C14.25 17.1679 14.0821 17 13.875 17C13.6679 17 13.5 17.1679 13.5 17.375C13.5 17.5821 13.6679 17.75 13.875 17.75Z" fill="white" stroke="white" stroke-linecap="round" stroke-linejoin="round"/>
</svg>
